solid ASCII
  facet normal 7.071068e-01 7.071068e-01 0.000000e+00
    outer loop
      vertex   7.320000e+01 5.220000e+01 4.160000e+01
      vertex   7.320000e+01 5.220000e+01 4.000000e+01
      vertex   7.220000e+01 5.320000e+01 4.160000e+01
    endloop
  endfacet
  facet normal 7.071068e-01 7.071068e-01 0.000000e+00
    outer loop
      vertex   7.220000e+01 5.320000e+01 4.160000e+01
      vertex   7.320000e+01 5.220000e+01 4.000000e+01
      vertex   7.220000e+01 5.320000e+01 4.000000e+01
    endloop
  endfacet
  facet normal 0.000000e+00 1.000000e+00 -0.000000e+00
    outer loop
      vertex   7.220000e+01 5.320000e+01 4.000000e+01
      vertex   1.000000e+00 5.320000e+01 4.000000e+01
      vertex   7.220000e+01 5.320000e+01 4.160000e+01
    endloop
  endfacet
  facet normal 0.000000e+00 1.000000e+00 0.000000e+00
    outer loop
      vertex   7.220000e+01 5.320000e+01 4.160000e+01
      vertex   1.000000e+00 5.320000e+01 4.000000e+01
      vertex   1.000000e+00 5.320000e+01 4.160000e+01
    endloop
  endfacet
  facet normal -7.071068e-01 7.071068e-01 0.000000e+00
    outer loop
      vertex   1.000000e+00 5.320000e+01 4.160000e+01
      vertex   1.000000e+00 5.320000e+01 4.000000e+01
      vertex   0.000000e+00 5.220000e+01 4.160000e+01
    endloop
  endfacet
  facet normal -7.071068e-01 7.071068e-01 0.000000e+00
    outer loop
      vertex   0.000000e+00 5.220000e+01 4.160000e+01
      vertex   1.000000e+00 5.320000e+01 4.000000e+01
      vertex   0.000000e+00 5.220000e+01 4.000000e+01
    endloop
  endfacet
  facet normal 0.000000e+00 -1.000000e+00 0.000000e+00
    outer loop
      vertex   3.460000e+01 4.720000e+01 3.700000e+01
      vertex   7.060000e+01 4.720000e+01 3.700000e+01
      vertex   3.460000e+01 4.720000e+01 4.000000e+01
    endloop
  endfacet
  facet normal 0.000000e+00 -1.000000e+00 0.000000e+00
    outer loop
      vertex   3.460000e+01 4.720000e+01 4.000000e+01
      vertex   7.060000e+01 4.720000e+01 3.700000e+01
      vertex   7.060000e+01 4.720000e+01 4.000000e+01
    endloop
  endfacet
  facet normal 0.000000e+00 1.000000e+00 -0.000000e+00
    outer loop
      vertex   6.060000e+01 2.920000e+01 4.000000e+01
      vertex   4.860000e+01 2.920000e+01 4.000000e+01
      vertex   6.060000e+01 2.920000e+01 4.160000e+01
    endloop
  endfacet
  facet normal 0.000000e+00 1.000000e+00 0.000000e+00
    outer loop
      vertex   6.060000e+01 2.920000e+01 4.160000e+01
      vertex   4.860000e+01 2.920000e+01 4.000000e+01
      vertex   4.860000e+01 2.920000e+01 4.160000e+01
    endloop
  endfacet
  facet normal 1.000000e+00 0.000000e+00 0.000000e+00
    outer loop
      vertex   4.860000e+01 2.920000e+01 4.000000e+01
      vertex   4.860000e+01 4.120000e+01 4.000000e+01
      vertex   4.860000e+01 2.920000e+01 4.160000e+01
    endloop
  endfacet
  facet normal 1.000000e+00 -0.000000e+00 0.000000e+00
    outer loop
      vertex   4.860000e+01 2.920000e+01 4.160000e+01
      vertex   4.860000e+01 4.120000e+01 4.000000e+01
      vertex   4.860000e+01 4.120000e+01 4.160000e+01
    endloop
  endfacet
  facet normal -1.000000e+00 0.000000e+00 0.000000e+00
    outer loop
      vertex   6.060000e+01 4.120000e+01 4.000000e+01
      vertex   6.060000e+01 2.920000e+01 4.000000e+01
      vertex   6.060000e+01 4.120000e+01 4.160000e+01
    endloop
  endfacet
  facet normal -1.000000e+00 -0.000000e+00 0.000000e+00
    outer loop
      vertex   6.060000e+01 4.120000e+01 4.160000e+01
      vertex   6.060000e+01 2.920000e+01 4.000000e+01
      vertex   6.060000e+01 2.920000e+01 4.160000e+01
    endloop
  endfacet
  facet normal 0.000000e+00 -1.000000e+00 0.000000e+00
    outer loop
      vertex   4.860000e+01 4.120000e+01 4.000000e+01
      vertex   6.060000e+01 4.120000e+01 4.000000e+01
      vertex   4.860000e+01 4.120000e+01 4.160000e+01
    endloop
  endfacet
  facet normal 0.000000e+00 -1.000000e+00 0.000000e+00
    outer loop
      vertex   4.860000e+01 4.120000e+01 4.160000e+01
      vertex   6.060000e+01 4.120000e+01 4.000000e+01
      vertex   6.060000e+01 4.120000e+01 4.160000e+01
    endloop
  endfacet
  facet normal -0.000000e+00 7.071068e-01 7.071068e-01
    outer loop
      vertex   1.560000e+01 4.990000e+01 3.850000e+01
      vertex   2.260000e+01 4.990000e+01 3.850000e+01
      vertex   1.410000e+01 5.140000e+01 3.700000e+01
    endloop
  endfacet
  facet normal -0.000000e+00 7.071068e-01 7.071068e-01
    outer loop
      vertex   1.410000e+01 5.140000e+01 3.700000e+01
      vertex   2.260000e+01 4.990000e+01 3.850000e+01
      vertex   2.410000e+01 5.140000e+01 3.700000e+01
    endloop
  endfacet
  facet normal 7.071068e-01 7.071068e-01 0.000000e+00
    outer loop
      vertex   1.560000e+01 4.990000e+01 3.850000e+01
      vertex   1.410000e+01 5.140000e+01 3.700000e+01
      vertex   1.410000e+01 5.140000e+01 4.000000e+01
    endloop
  endfacet
  facet normal 0.000000e+00 7.071068e-01 -7.071068e-01
    outer loop
      vertex   2.260000e+01 4.990000e+01 3.850000e+01
      vertex   1.560000e+01 4.990000e+01 3.850000e+01
      vertex   2.410000e+01 5.140000e+01 4.000000e+01
    endloop
  endfacet
  facet normal 0.000000e+00 7.071068e-01 -7.071068e-01
    outer loop
      vertex   2.410000e+01 5.140000e+01 4.000000e+01
      vertex   1.560000e+01 4.990000e+01 3.850000e+01
      vertex   1.410000e+01 5.140000e+01 4.000000e+01
    endloop
  endfacet
  facet normal -7.071068e-01 7.071068e-01 0.000000e+00
    outer loop
      vertex   2.260000e+01 4.990000e+01 3.850000e+01
      vertex   2.410000e+01 5.140000e+01 4.000000e+01
      vertex   2.410000e+01 5.140000e+01 3.700000e+01
    endloop
  endfacet
  facet normal 7.071068e-01 7.071068e-01 0.000000e+00
    outer loop
      vertex   5.060000e+01 4.990000e+01 3.850000e+01
      vertex   4.910000e+01 5.140000e+01 3.700000e+01
      vertex   4.910000e+01 5.140000e+01 4.000000e+01
    endloop
  endfacet
  facet normal 0.000000e+00 7.071068e-01 -7.071068e-01
    outer loop
      vertex   5.760000e+01 4.990000e+01 3.850000e+01
      vertex   5.060000e+01 4.990000e+01 3.850000e+01
      vertex   5.910000e+01 5.140000e+01 4.000000e+01
    endloop
  endfacet
  facet normal 0.000000e+00 7.071068e-01 -7.071068e-01
    outer loop
      vertex   5.910000e+01 5.140000e+01 4.000000e+01
      vertex   5.060000e+01 4.990000e+01 3.850000e+01
      vertex   4.910000e+01 5.140000e+01 4.000000e+01
    endloop
  endfacet
  facet normal -7.071068e-01 7.071068e-01 0.000000e+00
    outer loop
      vertex   5.760000e+01 4.990000e+01 3.850000e+01
      vertex   5.910000e+01 5.140000e+01 4.000000e+01
      vertex   5.910000e+01 5.140000e+01 3.700000e+01
    endloop
  endfacet
  facet normal -0.000000e+00 7.071068e-01 7.071068e-01
    outer loop
      vertex   5.060000e+01 4.990000e+01 3.850000e+01
      vertex   5.760000e+01 4.990000e+01 3.850000e+01
      vertex   4.910000e+01 5.140000e+01 3.700000e+01
    endloop
  endfacet
  facet normal -0.000000e+00 7.071068e-01 7.071068e-01
    outer loop
      vertex   4.910000e+01 5.140000e+01 3.700000e+01
      vertex   5.760000e+01 4.990000e+01 3.850000e+01
      vertex   5.910000e+01 5.140000e+01 3.700000e+01
    endloop
  endfacet
  facet normal 0.000000e+00 1.000000e+00 0.000000e+00
    outer loop
      vertex   5.910000e+01 5.140000e+01 3.700000e+01
      vertex   5.910000e+01 5.140000e+01 4.000000e+01
      vertex   7.140000e+01 5.140000e+01 3.700000e+01
    endloop
  endfacet
  facet normal 0.000000e+00 1.000000e+00 -0.000000e+00
    outer loop
      vertex   7.140000e+01 5.140000e+01 3.700000e+01
      vertex   5.910000e+01 5.140000e+01 4.000000e+01
      vertex   7.140000e+01 5.140000e+01 4.000000e+01
    endloop
  endfacet
  facet normal -0.000000e+00 1.000000e+00 0.000000e+00
    outer loop
      vertex   2.410000e+01 5.140000e+01 4.000000e+01
      vertex   4.910000e+01 5.140000e+01 4.000000e+01
      vertex   2.410000e+01 5.140000e+01 3.700000e+01
    endloop
  endfacet
  facet normal 0.000000e+00 1.000000e+00 0.000000e+00
    outer loop
      vertex   2.410000e+01 5.140000e+01 3.700000e+01
      vertex   4.910000e+01 5.140000e+01 4.000000e+01
      vertex   4.910000e+01 5.140000e+01 3.700000e+01
    endloop
  endfacet
  facet normal 0.000000e+00 1.000000e+00 -0.000000e+00
    outer loop
      vertex   1.410000e+01 5.140000e+01 3.700000e+01
      vertex   1.800000e+00 5.140000e+01 3.700000e+01
      vertex   1.410000e+01 5.140000e+01 4.000000e+01
    endloop
  endfacet
  facet normal 0.000000e+00 1.000000e+00 0.000000e+00
    outer loop
      vertex   1.410000e+01 5.140000e+01 4.000000e+01
      vertex   1.800000e+00 5.140000e+01 3.700000e+01
      vertex   1.800000e+00 5.140000e+01 4.000000e+01
    endloop
  endfacet
  facet normal 0.000000e+00 0.000000e+00 1.000000e+00
    outer loop
      vertex   6.060000e+01 2.920000e+01 4.160000e+01
      vertex   7.320000e+01 5.220000e+01 4.160000e+01
      vertex   6.060000e+01 4.120000e+01 4.160000e+01
    endloop
  endfacet
  facet normal 0.000000e+00 0.000000e+00 1.000000e+00
    outer loop
      vertex   6.060000e+01 4.120000e+01 4.160000e+01
      vertex   7.320000e+01 5.220000e+01 4.160000e+01
      vertex   7.220000e+01 5.320000e+01 4.160000e+01
    endloop
  endfacet
  facet normal 0.000000e+00 -0.000000e+00 1.000000e+00
    outer loop
      vertex   6.060000e+01 4.120000e+01 4.160000e+01
      vertex   7.220000e+01 5.320000e+01 4.160000e+01
      vertex   4.860000e+01 4.120000e+01 4.160000e+01
    endloop
  endfacet
  facet normal 0.000000e+00 -0.000000e+00 1.000000e+00
    outer loop
      vertex   4.860000e+01 4.120000e+01 4.160000e+01
      vertex   7.220000e+01 5.320000e+01 4.160000e+01
      vertex   1.000000e+00 5.320000e+01 4.160000e+01
    endloop
  endfacet
  facet normal 0.000000e+00 0.000000e+00 1.000000e+00
    outer loop
      vertex   4.860000e+01 4.120000e+01 4.160000e+01
      vertex   1.000000e+00 5.320000e+01 4.160000e+01
      vertex   0.000000e+00 5.220000e+01 4.160000e+01
    endloop
  endfacet
  facet normal 0.000000e+00 0.000000e+00 1.000000e+00
    outer loop
      vertex   7.320000e+01 5.220000e+01 4.160000e+01
      vertex   6.060000e+01 2.920000e+01 4.160000e+01
      vertex   7.320000e+01 -9.000000e+00 4.160000e+01
    endloop
  endfacet
  facet normal 0.000000e+00 0.000000e+00 1.000000e+00
    outer loop
      vertex   7.320000e+01 -9.000000e+00 4.160000e+01
      vertex   6.060000e+01 2.920000e+01 4.160000e+01
      vertex   4.860000e+01 2.920000e+01 4.160000e+01
    endloop
  endfacet
  facet normal 0.000000e+00 0.000000e+00 1.000000e+00
    outer loop
      vertex   7.320000e+01 -9.000000e+00 4.160000e+01
      vertex   4.860000e+01 2.920000e+01 4.160000e+01
      vertex   7.220000e+01 -1.000000e+01 4.160000e+01
    endloop
  endfacet
  facet normal 0.000000e+00 0.000000e+00 1.000000e+00
    outer loop
      vertex   7.220000e+01 -1.000000e+01 4.160000e+01
      vertex   4.860000e+01 2.920000e+01 4.160000e+01
      vertex   1.000000e+00 -1.000000e+01 4.160000e+01
    endloop
  endfacet
  facet normal 0.000000e+00 -0.000000e+00 1.000000e+00
    outer loop
      vertex   1.000000e+00 -1.000000e+01 4.160000e+01
      vertex   4.860000e+01 2.920000e+01 4.160000e+01
      vertex   0.000000e+00 -9.000000e+00 4.160000e+01
    endloop
  endfacet
  facet normal 0.000000e+00 0.000000e+00 1.000000e+00
    outer loop
      vertex   0.000000e+00 -9.000000e+00 4.160000e+01
      vertex   4.860000e+01 2.920000e+01 4.160000e+01
      vertex   0.000000e+00 5.220000e+01 4.160000e+01
    endloop
  endfacet
  facet normal 0.000000e+00 0.000000e+00 1.000000e+00
    outer loop
      vertex   0.000000e+00 5.220000e+01 4.160000e+01
      vertex   4.860000e+01 2.920000e+01 4.160000e+01
      vertex   4.860000e+01 4.120000e+01 4.160000e+01
    endloop
  endfacet
  facet normal -1.000000e+00 0.000000e+00 0.000000e+00
    outer loop
      vertex   0.000000e+00 5.220000e+01 4.000000e+01
      vertex   0.000000e+00 -9.000000e+00 4.000000e+01
      vertex   0.000000e+00 5.220000e+01 4.160000e+01
    endloop
  endfacet
  facet normal -1.000000e+00 -0.000000e+00 0.000000e+00
    outer loop
      vertex   0.000000e+00 5.220000e+01 4.160000e+01
      vertex   0.000000e+00 -9.000000e+00 4.000000e+01
      vertex   0.000000e+00 -9.000000e+00 4.160000e+01
    endloop
  endfacet
  facet normal 1.000000e+00 0.000000e+00 0.000000e+00
    outer loop
      vertex   7.140000e+01 5.140000e+01 4.000000e+01
      vertex   7.140000e+01 -8.200000e+00 4.000000e+01
      vertex   7.140000e+01 5.140000e+01 3.700000e+01
    endloop
  endfacet
  facet normal 1.000000e+00 0.000000e+00 0.000000e+00
    outer loop
      vertex   7.140000e+01 5.140000e+01 3.700000e+01
      vertex   7.140000e+01 -8.200000e+00 4.000000e+01
      vertex   7.140000e+01 -8.200000e+00 3.700000e+01
    endloop
  endfacet
  facet normal 0.000000e+00 -1.000000e+00 0.000000e+00
    outer loop
      vertex   2.410000e+01 -8.200000e+00 3.700000e+01
      vertex   4.910000e+01 -8.200000e+00 3.700000e+01
      vertex   2.410000e+01 -8.200000e+00 4.000000e+01
    endloop
  endfacet
  facet normal 0.000000e+00 -1.000000e+00 0.000000e+00
    outer loop
      vertex   2.410000e+01 -8.200000e+00 4.000000e+01
      vertex   4.910000e+01 -8.200000e+00 3.700000e+01
      vertex   4.910000e+01 -8.200000e+00 4.000000e+01
    endloop
  endfacet
  facet normal 0.000000e+00 -1.000000e+00 0.000000e+00
    outer loop
      vertex   1.410000e+01 -8.200000e+00 3.700000e+01
      vertex   1.410000e+01 -8.200000e+00 4.000000e+01
      vertex   1.800000e+00 -8.200000e+00 3.700000e+01
    endloop
  endfacet
  facet normal 0.000000e+00 -1.000000e+00 0.000000e+00
    outer loop
      vertex   1.800000e+00 -8.200000e+00 3.700000e+01
      vertex   1.410000e+01 -8.200000e+00 4.000000e+01
      vertex   1.800000e+00 -8.200000e+00 4.000000e+01
    endloop
  endfacet
  facet normal 0.000000e+00 -1.000000e+00 0.000000e+00
    outer loop
      vertex   5.910000e+01 -8.200000e+00 3.700000e+01
      vertex   7.140000e+01 -8.200000e+00 3.700000e+01
      vertex   5.910000e+01 -8.200000e+00 4.000000e+01
    endloop
  endfacet
  facet normal 2.888385e-16 -1.000000e+00 1.184238e-15
    outer loop
      vertex   5.910000e+01 -8.200000e+00 4.000000e+01
      vertex   7.140000e+01 -8.200000e+00 3.700000e+01
      vertex   7.140000e+01 -8.200000e+00 4.000000e+01
    endloop
  endfacet
  facet normal 0.000000e+00 -7.071068e-01 7.071068e-01
    outer loop
      vertex   4.910000e+01 -8.200000e+00 3.700000e+01
      vertex   5.910000e+01 -8.200000e+00 3.700000e+01
      vertex   5.060000e+01 -6.700000e+00 3.850000e+01
    endloop
  endfacet
  facet normal 0.000000e+00 -7.071068e-01 7.071068e-01
    outer loop
      vertex   5.060000e+01 -6.700000e+00 3.850000e+01
      vertex   5.910000e+01 -8.200000e+00 3.700000e+01
      vertex   5.760000e+01 -6.700000e+00 3.850000e+01
    endloop
  endfacet
  facet normal -7.071068e-01 -7.071068e-01 -0.000000e+00
    outer loop
      vertex   5.910000e+01 -8.200000e+00 4.000000e+01
      vertex   5.760000e+01 -6.700000e+00 3.850000e+01
      vertex   5.910000e+01 -8.200000e+00 3.700000e+01
    endloop
  endfacet
  facet normal -0.000000e+00 -7.071068e-01 -7.071068e-01
    outer loop
      vertex   5.910000e+01 -8.200000e+00 4.000000e+01
      vertex   4.910000e+01 -8.200000e+00 4.000000e+01
      vertex   5.760000e+01 -6.700000e+00 3.850000e+01
    endloop
  endfacet
  facet normal -0.000000e+00 -7.071068e-01 -7.071068e-01
    outer loop
      vertex   5.760000e+01 -6.700000e+00 3.850000e+01
      vertex   4.910000e+01 -8.200000e+00 4.000000e+01
      vertex   5.060000e+01 -6.700000e+00 3.850000e+01
    endloop
  endfacet
  facet normal 7.071068e-01 -7.071068e-01 0.000000e+00
    outer loop
      vertex   4.910000e+01 -8.200000e+00 3.700000e+01
      vertex   5.060000e+01 -6.700000e+00 3.850000e+01
      vertex   4.910000e+01 -8.200000e+00 4.000000e+01
    endloop
  endfacet
  facet normal -7.071068e-01 -7.071068e-01 -0.000000e+00
    outer loop
      vertex   2.410000e+01 -8.200000e+00 4.000000e+01
      vertex   2.260000e+01 -6.700000e+00 3.850000e+01
      vertex   2.410000e+01 -8.200000e+00 3.700000e+01
    endloop
  endfacet
  facet normal -0.000000e+00 -7.071068e-01 -7.071068e-01
    outer loop
      vertex   2.410000e+01 -8.200000e+00 4.000000e+01
      vertex   1.410000e+01 -8.200000e+00 4.000000e+01
      vertex   2.260000e+01 -6.700000e+00 3.850000e+01
    endloop
  endfacet
  facet normal -0.000000e+00 -7.071068e-01 -7.071068e-01
    outer loop
      vertex   2.260000e+01 -6.700000e+00 3.850000e+01
      vertex   1.410000e+01 -8.200000e+00 4.000000e+01
      vertex   1.560000e+01 -6.700000e+00 3.850000e+01
    endloop
  endfacet
  facet normal 7.071068e-01 -7.071068e-01 0.000000e+00
    outer loop
      vertex   1.410000e+01 -8.200000e+00 3.700000e+01
      vertex   1.560000e+01 -6.700000e+00 3.850000e+01
      vertex   1.410000e+01 -8.200000e+00 4.000000e+01
    endloop
  endfacet
  facet normal 0.000000e+00 -7.071068e-01 7.071068e-01
    outer loop
      vertex   1.410000e+01 -8.200000e+00 3.700000e+01
      vertex   2.410000e+01 -8.200000e+00 3.700000e+01
      vertex   1.560000e+01 -6.700000e+00 3.850000e+01
    endloop
  endfacet
  facet normal 0.000000e+00 -7.071068e-01 7.071068e-01
    outer loop
      vertex   1.560000e+01 -6.700000e+00 3.850000e+01
      vertex   2.410000e+01 -8.200000e+00 3.700000e+01
      vertex   2.260000e+01 -6.700000e+00 3.850000e+01
    endloop
  endfacet
  facet normal 0.000000e+00 1.000000e+00 -0.000000e+00
    outer loop
      vertex   7.060000e+01 -4.000000e+00 3.700000e+01
      vertex   3.460000e+01 -4.000000e+00 3.700000e+01
      vertex   7.060000e+01 -4.000000e+00 4.000000e+01
    endloop
  endfacet
  facet normal 0.000000e+00 1.000000e+00 0.000000e+00
    outer loop
      vertex   7.060000e+01 -4.000000e+00 4.000000e+01
      vertex   3.460000e+01 -4.000000e+00 3.700000e+01
      vertex   3.460000e+01 -4.000000e+00 4.000000e+01
    endloop
  endfacet
  facet normal 1.000000e+00 0.000000e+00 0.000000e+00
    outer loop
      vertex   7.320000e+01 5.220000e+01 4.160000e+01
      vertex   7.320000e+01 -9.000000e+00 4.160000e+01
      vertex   7.320000e+01 5.220000e+01 4.000000e+01
    endloop
  endfacet
  facet normal 1.000000e+00 0.000000e+00 0.000000e+00
    outer loop
      vertex   7.320000e+01 5.220000e+01 4.000000e+01
      vertex   7.320000e+01 -9.000000e+00 4.160000e+01
      vertex   7.320000e+01 -9.000000e+00 4.000000e+01
    endloop
  endfacet
  facet normal 7.071068e-01 -7.071068e-01 0.000000e+00
    outer loop
      vertex   7.220000e+01 -1.000000e+01 4.160000e+01
      vertex   7.220000e+01 -1.000000e+01 4.000000e+01
      vertex   7.320000e+01 -9.000000e+00 4.160000e+01
    endloop
  endfacet
  facet normal 7.071068e-01 -7.071068e-01 0.000000e+00
    outer loop
      vertex   7.320000e+01 -9.000000e+00 4.160000e+01
      vertex   7.220000e+01 -1.000000e+01 4.000000e+01
      vertex   7.320000e+01 -9.000000e+00 4.000000e+01
    endloop
  endfacet
  facet normal 0.000000e+00 -1.000000e+00 0.000000e+00
    outer loop
      vertex   1.000000e+00 -1.000000e+01 4.000000e+01
      vertex   7.220000e+01 -1.000000e+01 4.000000e+01
      vertex   1.000000e+00 -1.000000e+01 4.160000e+01
    endloop
  endfacet
  facet normal 0.000000e+00 -1.000000e+00 0.000000e+00
    outer loop
      vertex   1.000000e+00 -1.000000e+01 4.160000e+01
      vertex   7.220000e+01 -1.000000e+01 4.000000e+01
      vertex   7.220000e+01 -1.000000e+01 4.160000e+01
    endloop
  endfacet
  facet normal -7.071068e-01 -7.071068e-01 -0.000000e+00
    outer loop
      vertex   0.000000e+00 -9.000000e+00 4.160000e+01
      vertex   0.000000e+00 -9.000000e+00 4.000000e+01
      vertex   1.000000e+00 -1.000000e+01 4.160000e+01
    endloop
  endfacet
  facet normal -7.071068e-01 -7.071068e-01 -0.000000e+00
    outer loop
      vertex   1.000000e+00 -1.000000e+01 4.160000e+01
      vertex   0.000000e+00 -9.000000e+00 4.000000e+01
      vertex   1.000000e+00 -1.000000e+01 4.000000e+01
    endloop
  endfacet
  facet normal -1.000000e+00 0.000000e+00 0.000000e+00
    outer loop
      vertex   7.060000e+01 4.720000e+01 3.700000e+01
      vertex   7.060000e+01 -4.000000e+00 3.700000e+01
      vertex   7.060000e+01 4.720000e+01 4.000000e+01
    endloop
  endfacet
  facet normal -1.000000e+00 -0.000000e+00 0.000000e+00
    outer loop
      vertex   7.060000e+01 4.720000e+01 4.000000e+01
      vertex   7.060000e+01 -4.000000e+00 3.700000e+01
      vertex   7.060000e+01 -4.000000e+00 4.000000e+01
    endloop
  endfacet
  facet normal 2.180657e-09 0.000000e+00 -1.000000e+00
    outer loop
      vertex   3.460000e+01 -4.000000e+00 3.700000e+01
      vertex   1.410000e+01 -8.200000e+00 3.700000e+01
      vertex   3.460000e+01 4.720000e+01 3.700000e+01
    endloop
  endfacet
  facet normal 2.180657e-09 0.000000e+00 -1.000000e+00
    outer loop
      vertex   3.460000e+01 4.720000e+01 3.700000e+01
      vertex   1.410000e+01 -8.200000e+00 3.700000e+01
      vertex   1.410000e+01 5.140000e+01 3.700000e+01
    endloop
  endfacet
  facet normal 0.000000e+00 -1.064368e-08 -1.000000e+00
    outer loop
      vertex   3.460000e+01 4.720000e+01 3.700000e+01
      vertex   1.410000e+01 5.140000e+01 3.700000e+01
      vertex   2.410000e+01 5.140000e+01 3.700000e+01
    endloop
  endfacet
  facet normal 0.000000e+00 1.064368e-08 -1.000000e+00
    outer loop
      vertex   7.060000e+01 -4.000000e+00 3.700000e+01
      vertex   4.910000e+01 -8.200000e+00 3.700000e+01
      vertex   3.460000e+01 -4.000000e+00 3.700000e+01
    endloop
  endfacet
  facet normal 0.000000e+00 1.064368e-08 -1.000000e+00
    outer loop
      vertex   3.460000e+01 -4.000000e+00 3.700000e+01
      vertex   4.910000e+01 -8.200000e+00 3.700000e+01
      vertex   2.410000e+01 -8.200000e+00 3.700000e+01
    endloop
  endfacet
  facet normal 0.000000e+00 1.064368e-08 -1.000000e+00
    outer loop
      vertex   3.460000e+01 -4.000000e+00 3.700000e+01
      vertex   2.410000e+01 -8.200000e+00 3.700000e+01
      vertex   1.410000e+01 -8.200000e+00 3.700000e+01
    endloop
  endfacet
  facet normal 0.000000e+00 0.000000e+00 -1.000000e+00
    outer loop
      vertex   7.060000e+01 4.720000e+01 3.700000e+01
      vertex   7.140000e+01 -8.200000e+00 3.700000e+01
      vertex   7.060000e+01 -4.000000e+00 3.700000e+01
    endloop
  endfacet
  facet normal 3.634429e-09 6.922722e-10 -1.000000e+00
    outer loop
      vertex   7.060000e+01 -4.000000e+00 3.700000e+01
      vertex   7.140000e+01 -8.200000e+00 3.700000e+01
      vertex   5.910000e+01 -8.200000e+00 3.700000e+01
    endloop
  endfacet
  facet normal 0.000000e+00 1.064368e-08 -1.000000e+00
    outer loop
      vertex   7.060000e+01 -4.000000e+00 3.700000e+01
      vertex   5.910000e+01 -8.200000e+00 3.700000e+01
      vertex   4.910000e+01 -8.200000e+00 3.700000e+01
    endloop
  endfacet
  facet normal 0.000000e+00 -1.064368e-08 -1.000000e+00
    outer loop
      vertex   3.460000e+01 4.720000e+01 3.700000e+01
      vertex   4.910000e+01 5.140000e+01 3.700000e+01
      vertex   7.060000e+01 4.720000e+01 3.700000e+01
    endloop
  endfacet
  facet normal 0.000000e+00 -1.064368e-08 -1.000000e+00
    outer loop
      vertex   7.060000e+01 4.720000e+01 3.700000e+01
      vertex   4.910000e+01 5.140000e+01 3.700000e+01
      vertex   5.910000e+01 5.140000e+01 3.700000e+01
    endloop
  endfacet
  facet normal 3.634429e-09 -6.922722e-10 -1.000000e+00
    outer loop
      vertex   7.060000e+01 4.720000e+01 3.700000e+01
      vertex   5.910000e+01 5.140000e+01 3.700000e+01
      vertex   7.140000e+01 5.140000e+01 3.700000e+01
    endloop
  endfacet
  facet normal -3.634429e-09 -1.895650e-25 -1.000000e+00
    outer loop
      vertex   1.800000e+00 -8.200000e+00 3.700000e+01
      vertex   1.800000e+00 5.140000e+01 3.700000e+01
      vertex   1.410000e+01 -8.200000e+00 3.700000e+01
    endloop
  endfacet
  facet normal -3.634429e-09 0.000000e+00 -1.000000e+00
    outer loop
      vertex   1.410000e+01 -8.200000e+00 3.700000e+01
      vertex   1.800000e+00 5.140000e+01 3.700000e+01
      vertex   1.410000e+01 5.140000e+01 3.700000e+01
    endloop
  endfacet
  facet normal 0.000000e+00 -1.064368e-08 -1.000000e+00
    outer loop
      vertex   2.410000e+01 5.140000e+01 3.700000e+01
      vertex   4.910000e+01 5.140000e+01 3.700000e+01
      vertex   3.460000e+01 4.720000e+01 3.700000e+01
    endloop
  endfacet
  facet normal 0.000000e+00 -0.000000e+00 -1.000000e+00
    outer loop
      vertex   7.140000e+01 5.140000e+01 3.700000e+01
      vertex   7.140000e+01 -8.200000e+00 3.700000e+01
      vertex   7.060000e+01 4.720000e+01 3.700000e+01
    endloop
  endfacet
  facet normal 0.000000e+00 0.000000e+00 -1.000000e+00
    outer loop
      vertex   4.860000e+01 2.920000e+01 4.000000e+01
      vertex   3.460000e+01 4.720000e+01 4.000000e+01
      vertex   4.860000e+01 4.120000e+01 4.000000e+01
    endloop
  endfacet
  facet normal 0.000000e+00 0.000000e+00 -1.000000e+00
    outer loop
      vertex   4.860000e+01 4.120000e+01 4.000000e+01
      vertex   3.460000e+01 4.720000e+01 4.000000e+01
      vertex   7.060000e+01 4.720000e+01 4.000000e+01
    endloop
  endfacet
  facet normal 0.000000e+00 0.000000e+00 -1.000000e+00
    outer loop
      vertex   4.860000e+01 4.120000e+01 4.000000e+01
      vertex   7.060000e+01 4.720000e+01 4.000000e+01
      vertex   6.060000e+01 4.120000e+01 4.000000e+01
    endloop
  endfacet
  facet normal 0.000000e+00 0.000000e+00 -1.000000e+00
    outer loop
      vertex   6.060000e+01 4.120000e+01 4.000000e+01
      vertex   7.060000e+01 4.720000e+01 4.000000e+01
      vertex   6.060000e+01 2.920000e+01 4.000000e+01
    endloop
  endfacet
  facet normal 0.000000e+00 0.000000e+00 -1.000000e+00
    outer loop
      vertex   6.060000e+01 2.920000e+01 4.000000e+01
      vertex   7.060000e+01 4.720000e+01 4.000000e+01
      vertex   7.060000e+01 -4.000000e+00 4.000000e+01
    endloop
  endfacet
  facet normal -0.000000e+00 -0.000000e+00 -1.000000e+00
    outer loop
      vertex   6.060000e+01 2.920000e+01 4.000000e+01
      vertex   7.060000e+01 -4.000000e+00 4.000000e+01
      vertex   4.860000e+01 2.920000e+01 4.000000e+01
    endloop
  endfacet
  facet normal 0.000000e+00 -0.000000e+00 -1.000000e+00
    outer loop
      vertex   4.860000e+01 2.920000e+01 4.000000e+01
      vertex   7.060000e+01 -4.000000e+00 4.000000e+01
      vertex   3.460000e+01 -4.000000e+00 4.000000e+01
    endloop
  endfacet
  facet normal -0.000000e+00 0.000000e+00 -1.000000e+00
    outer loop
      vertex   4.860000e+01 2.920000e+01 4.000000e+01
      vertex   3.460000e+01 -4.000000e+00 4.000000e+01
      vertex   3.460000e+01 4.720000e+01 4.000000e+01
    endloop
  endfacet
  facet normal 1.000000e+00 0.000000e+00 0.000000e+00
    outer loop
      vertex   3.460000e+01 4.720000e+01 4.000000e+01
      vertex   3.460000e+01 -4.000000e+00 4.000000e+01
      vertex   3.460000e+01 4.720000e+01 3.700000e+01
    endloop
  endfacet
  facet normal 1.000000e+00 0.000000e+00 0.000000e+00
    outer loop
      vertex   3.460000e+01 4.720000e+01 3.700000e+01
      vertex   3.460000e+01 -4.000000e+00 4.000000e+01
      vertex   3.460000e+01 -4.000000e+00 3.700000e+01
    endloop
  endfacet
  facet normal 0.000000e+00 0.000000e+00 -1.000000e+00
    outer loop
      vertex   1.800000e+00 -8.200000e+00 4.000000e+01
      vertex   0.000000e+00 5.220000e+01 4.000000e+01
      vertex   1.800000e+00 5.140000e+01 4.000000e+01
    endloop
  endfacet
  facet normal 0.000000e+00 0.000000e+00 -1.000000e+00
    outer loop
      vertex   1.800000e+00 5.140000e+01 4.000000e+01
      vertex   0.000000e+00 5.220000e+01 4.000000e+01
      vertex   1.000000e+00 5.320000e+01 4.000000e+01
    endloop
  endfacet
  facet normal 0.000000e+00 0.000000e+00 -1.000000e+00
    outer loop
      vertex   1.800000e+00 5.140000e+01 4.000000e+01
      vertex   1.000000e+00 5.320000e+01 4.000000e+01
      vertex   1.410000e+01 5.140000e+01 4.000000e+01
    endloop
  endfacet
  facet normal 0.000000e+00 0.000000e+00 -1.000000e+00
    outer loop
      vertex   1.410000e+01 5.140000e+01 4.000000e+01
      vertex   1.000000e+00 5.320000e+01 4.000000e+01
      vertex   2.410000e+01 5.140000e+01 4.000000e+01
    endloop
  endfacet
  facet normal 0.000000e+00 0.000000e+00 -1.000000e+00
    outer loop
      vertex   2.410000e+01 5.140000e+01 4.000000e+01
      vertex   1.000000e+00 5.320000e+01 4.000000e+01
      vertex   7.220000e+01 5.320000e+01 4.000000e+01
    endloop
  endfacet
  facet normal 0.000000e+00 0.000000e+00 -1.000000e+00
    outer loop
      vertex   2.410000e+01 5.140000e+01 4.000000e+01
      vertex   7.220000e+01 5.320000e+01 4.000000e+01
      vertex   4.910000e+01 5.140000e+01 4.000000e+01
    endloop
  endfacet
  facet normal 0.000000e+00 0.000000e+00 -1.000000e+00
    outer loop
      vertex   4.910000e+01 5.140000e+01 4.000000e+01
      vertex   7.220000e+01 5.320000e+01 4.000000e+01
      vertex   5.910000e+01 5.140000e+01 4.000000e+01
    endloop
  endfacet
  facet normal 0.000000e+00 0.000000e+00 -1.000000e+00
    outer loop
      vertex   5.910000e+01 5.140000e+01 4.000000e+01
      vertex   7.220000e+01 5.320000e+01 4.000000e+01
      vertex   7.140000e+01 5.140000e+01 4.000000e+01
    endloop
  endfacet
  facet normal 0.000000e+00 0.000000e+00 -1.000000e+00
    outer loop
      vertex   7.140000e+01 5.140000e+01 4.000000e+01
      vertex   7.220000e+01 5.320000e+01 4.000000e+01
      vertex   7.320000e+01 5.220000e+01 4.000000e+01
    endloop
  endfacet
  facet normal 0.000000e+00 0.000000e+00 -1.000000e+00
    outer loop
      vertex   7.140000e+01 5.140000e+01 4.000000e+01
      vertex   7.320000e+01 5.220000e+01 4.000000e+01
      vertex   7.140000e+01 -8.200000e+00 4.000000e+01
    endloop
  endfacet
  facet normal 0.000000e+00 0.000000e+00 -1.000000e+00
    outer loop
      vertex   7.140000e+01 -8.200000e+00 4.000000e+01
      vertex   7.320000e+01 5.220000e+01 4.000000e+01
      vertex   7.320000e+01 -9.000000e+00 4.000000e+01
    endloop
  endfacet
  facet normal 0.000000e+00 0.000000e+00 -1.000000e+00
    outer loop
      vertex   7.140000e+01 -8.200000e+00 4.000000e+01
      vertex   7.320000e+01 -9.000000e+00 4.000000e+01
      vertex   7.220000e+01 -1.000000e+01 4.000000e+01
    endloop
  endfacet
  facet normal -0.000000e+00 0.000000e+00 -1.000000e+00
    outer loop
      vertex   1.410000e+01 -8.200000e+00 4.000000e+01
      vertex   1.000000e+00 -1.000000e+01 4.000000e+01
      vertex   1.800000e+00 -8.200000e+00 4.000000e+01
    endloop
  endfacet
  facet normal 0.000000e+00 0.000000e+00 -1.000000e+00
    outer loop
      vertex   1.800000e+00 -8.200000e+00 4.000000e+01
      vertex   1.000000e+00 -1.000000e+01 4.000000e+01
      vertex   0.000000e+00 -9.000000e+00 4.000000e+01
    endloop
  endfacet
  facet normal -0.000000e+00 0.000000e+00 -1.000000e+00
    outer loop
      vertex   1.800000e+00 -8.200000e+00 4.000000e+01
      vertex   0.000000e+00 -9.000000e+00 4.000000e+01
      vertex   0.000000e+00 5.220000e+01 4.000000e+01
    endloop
  endfacet
  facet normal 0.000000e+00 -0.000000e+00 -1.000000e+00
    outer loop
      vertex   1.410000e+01 -8.200000e+00 4.000000e+01
      vertex   2.410000e+01 -8.200000e+00 4.000000e+01
      vertex   1.000000e+00 -1.000000e+01 4.000000e+01
    endloop
  endfacet
  facet normal 0.000000e+00 0.000000e+00 -1.000000e+00
    outer loop
      vertex   1.000000e+00 -1.000000e+01 4.000000e+01
      vertex   2.410000e+01 -8.200000e+00 4.000000e+01
      vertex   4.910000e+01 -8.200000e+00 4.000000e+01
    endloop
  endfacet
  facet normal 0.000000e+00 0.000000e+00 -1.000000e+00
    outer loop
      vertex   1.000000e+00 -1.000000e+01 4.000000e+01
      vertex   4.910000e+01 -8.200000e+00 4.000000e+01
      vertex   7.220000e+01 -1.000000e+01 4.000000e+01
    endloop
  endfacet
  facet normal 0.000000e+00 0.000000e+00 -1.000000e+00
    outer loop
      vertex   7.220000e+01 -1.000000e+01 4.000000e+01
      vertex   4.910000e+01 -8.200000e+00 4.000000e+01
      vertex   5.910000e+01 -8.200000e+00 4.000000e+01
    endloop
  endfacet
  facet normal 0.000000e+00 0.000000e+00 -1.000000e+00
    outer loop
      vertex   7.220000e+01 -1.000000e+01 4.000000e+01
      vertex   5.910000e+01 -8.200000e+00 4.000000e+01
      vertex   7.140000e+01 -8.200000e+00 4.000000e+01
    endloop
  endfacet
  facet normal -1.000000e+00 -5.215813e-17 0.000000e+00
    outer loop
      vertex   1.800000e+00 5.140000e+01 3.700000e+01
      vertex   1.800000e+00 -8.200000e+00 3.700000e+01
      vertex   1.800000e+00 5.140000e+01 4.000000e+01
    endloop
  endfacet
  facet normal -1.000000e+00 -5.215813e-17 0.000000e+00
    outer loop
      vertex   1.800000e+00 5.140000e+01 4.000000e+01
      vertex   1.800000e+00 -8.200000e+00 3.700000e+01
      vertex   1.800000e+00 -8.200000e+00 4.000000e+01
    endloop
  endfacet
endsolid
