solid ASCII
  facet normal -2.961983e-01 -1.710098e-01 9.396926e-01
    outer loop
      vertex   2.390606e+01 6.560538e+00 6.631523e+01
      vertex   2.251231e+01 1.438724e+01 6.730025e+01
      vertex   2.088472e+01 1.344755e+01 6.661621e+01
    endloop
  endfacet
  facet normal -2.961983e-01 -1.710098e-01 9.396926e-01
    outer loop
      vertex   2.088472e+01 1.344755e+01 6.661621e+01
      vertex   2.251231e+01 1.438724e+01 6.730025e+01
      vertex   1.949098e+01 2.127426e+01 6.760124e+01
    endloop
  endfacet
  facet normal -2.961983e-01 -1.710098e-01 9.396926e-01
    outer loop
      vertex   2.088472e+01 1.344755e+01 6.661621e+01
      vertex   1.949098e+01 2.127426e+01 6.760124e+01
      vertex   1.643107e+01 1.950763e+01 6.631523e+01
    endloop
  endfacet
  facet normal -2.961983e-01 -1.710098e-01 9.396926e-01
    outer loop
      vertex   2.390606e+01 6.560538e+00 6.631523e+01
      vertex   2.696596e+01 8.327172e+00 6.760124e+01
      vertex   2.251231e+01 1.438724e+01 6.730025e+01
    endloop
  endfacet
  facet normal 7.497564e-01 5.678791e-01 3.396743e-01
    outer loop
      vertex   2.251231e+01 1.438724e+01 6.730025e+01
      vertex   2.696596e+01 8.327172e+00 6.760124e+01
      vertex   2.428950e+01 1.541330e+01 6.166210e+01
    endloop
  endfacet
  facet normal 7.497564e-01 5.678791e-01 3.396743e-01
    outer loop
      vertex   2.428950e+01 1.541330e+01 6.166210e+01
      vertex   2.696596e+01 8.327172e+00 6.760124e+01
      vertex   2.874315e+01 9.353231e+00 6.196308e+01
    endloop
  endfacet
  facet normal 4.999992e-01 -8.660259e-01 1.377925e-16
    outer loop
      vertex   2.696596e+01 8.327172e+00 6.760124e+01
      vertex   2.390606e+01 6.560538e+00 6.631523e+01
      vertex   2.874315e+01 9.353231e+00 6.196308e+01
    endloop
  endfacet
  facet normal 4.999992e-01 -8.660259e-01 -2.834588e-15
    outer loop
      vertex   2.874315e+01 9.353231e+00 6.196308e+01
      vertex   2.390606e+01 6.560538e+00 6.631523e+01
      vertex   2.568325e+01 7.586597e+00 6.067708e+01
    endloop
  endfacet
  facet normal 4.999992e-01 -8.660259e-01 -1.015407e-15
    outer loop
      vertex   2.874315e+01 9.353231e+00 6.196308e+01
      vertex   2.568325e+01 7.586597e+00 6.067708e+01
      vertex   6.261636e+01 2.890989e+01 -5.649366e+01
    endloop
  endfacet
  facet normal 4.999992e-01 -8.660259e-01 0.000000e+00
    outer loop
      vertex   6.261636e+01 2.890989e+01 -6.336235e+01
      vertex   6.705933e+01 3.147504e+01 -7.745774e+01
      vertex   6.261636e+01 2.890989e+01 -5.649366e+01
    endloop
  endfacet
  facet normal 4.999992e-01 -8.660259e-01 -2.808868e-17
    outer loop
      vertex   6.261636e+01 2.890989e+01 -5.649366e+01
      vertex   6.705933e+01 3.147504e+01 -7.745774e+01
      vertex   7.228430e+01 3.449167e+01 -7.745774e+01
    endloop
  endfacet
  facet normal 4.999992e-01 -8.660259e-01 8.485366e-16
    outer loop
      vertex   6.261636e+01 2.890989e+01 -5.649366e+01
      vertex   7.228430e+01 3.449167e+01 -7.745774e+01
      vertex   2.874315e+01 9.353231e+00 6.196308e+01
    endloop
  endfacet
  facet normal 4.999992e-01 -8.660259e-01 -4.219969e-14
    outer loop
      vertex   2.874315e+01 9.353231e+00 6.196308e+01
      vertex   7.228430e+01 3.449167e+01 -7.745774e+01
      vertex   7.228430e+01 3.449167e+01 -7.617173e+01
    endloop
  endfacet
  facet normal -8.666766e-01 -3.653669e-01 -3.396743e-01
    outer loop
      vertex   2.390606e+01 6.560538e+00 6.631523e+01
      vertex   2.088472e+01 1.344755e+01 6.661621e+01
      vertex   2.568325e+01 7.586597e+00 6.067708e+01
    endloop
  endfacet
  facet normal -8.666766e-01 -3.653669e-01 -3.396743e-01
    outer loop
      vertex   2.568325e+01 7.586597e+00 6.067708e+01
      vertex   2.088472e+01 1.344755e+01 6.661621e+01
      vertex   2.266191e+01 1.447361e+01 6.097806e+01
    endloop
  endfacet
  facet normal -7.497564e-01 -5.678791e-01 -3.396743e-01
    outer loop
      vertex   2.088472e+01 1.344755e+01 6.661621e+01
      vertex   1.643107e+01 1.950763e+01 6.631523e+01
      vertex   2.266191e+01 1.447361e+01 6.097806e+01
    endloop
  endfacet
  facet normal -7.497564e-01 -5.678791e-01 -3.396743e-01
    outer loop
      vertex   2.266191e+01 1.447361e+01 6.097806e+01
      vertex   1.643107e+01 1.950763e+01 6.631523e+01
      vertex   1.820826e+01 2.053368e+01 6.067708e+01
    endloop
  endfacet
  facet normal -2.961983e-01 -1.710098e-01 9.396926e-01
    outer loop
      vertex   1.820826e+01 2.053368e+01 6.067708e+01
      vertex   2.568325e+01 7.586597e+00 6.067708e+01
      vertex   2.266191e+01 1.447361e+01 6.097806e+01
    endloop
  endfacet
  facet normal 8.666766e-01 3.653669e-01 3.396743e-01
    outer loop
      vertex   1.949098e+01 2.127426e+01 6.760124e+01
      vertex   2.251231e+01 1.438724e+01 6.730025e+01
      vertex   2.126817e+01 2.230032e+01 6.196308e+01
    endloop
  endfacet
  facet normal 8.666766e-01 3.653669e-01 3.396743e-01
    outer loop
      vertex   2.126817e+01 2.230032e+01 6.196308e+01
      vertex   2.251231e+01 1.438724e+01 6.730025e+01
      vertex   2.428950e+01 1.541330e+01 6.166210e+01
    endloop
  endfacet
  facet normal -2.961983e-01 -1.710098e-01 9.396926e-01
    outer loop
      vertex   2.126817e+01 2.230032e+01 6.196308e+01
      vertex   2.428950e+01 1.541330e+01 6.166210e+01
      vertex   2.874315e+01 9.353231e+00 6.196308e+01
    endloop
  endfacet
  facet normal -8.137981e-01 -4.698455e-01 -3.420201e-01
    outer loop
      vertex   2.568325e+01 7.586597e+00 6.067708e+01
      vertex   1.820826e+01 2.053368e+01 6.067708e+01
      vertex   6.261636e+01 2.890989e+01 -5.649366e+01
    endloop
  endfacet
  facet normal -8.137981e-01 -4.698455e-01 -3.420201e-01
    outer loop
      vertex   6.261636e+01 2.890989e+01 -5.649366e+01
      vertex   1.820826e+01 2.053368e+01 6.067708e+01
      vertex   5.514137e+01 4.185698e+01 -5.649366e+01
    endloop
  endfacet
  facet normal 8.660259e-01 4.999992e-01 -2.564287e-15
    outer loop
      vertex   7.228430e+01 3.449167e+01 -7.617173e+01
      vertex   7.228430e+01 3.449167e+01 -7.745774e+01
      vertex   6.480932e+01 4.743876e+01 -7.617173e+01
    endloop
  endfacet
  facet normal 8.660259e-01 4.999992e-01 1.933812e-14
    outer loop
      vertex   6.480932e+01 4.743876e+01 -7.617173e+01
      vertex   7.228430e+01 3.449167e+01 -7.745774e+01
      vertex   6.480932e+01 4.743876e+01 -7.745774e+01
    endloop
  endfacet
  facet normal -0.000000e+00 0.000000e+00 -1.000000e+00
    outer loop
      vertex   7.228430e+01 3.449167e+01 -7.745774e+01
      vertex   6.705933e+01 3.147504e+01 -7.745774e+01
      vertex   6.480932e+01 4.743876e+01 -7.745774e+01
    endloop
  endfacet
  facet normal 0.000000e+00 -0.000000e+00 -1.000000e+00
    outer loop
      vertex   6.480932e+01 4.743876e+01 -7.745774e+01
      vertex   6.705933e+01 3.147504e+01 -7.745774e+01
      vertex   5.958434e+01 4.442212e+01 -7.745774e+01
    endloop
  endfacet
  facet normal -8.660259e-01 -4.999992e-01 0.000000e+00
    outer loop
      vertex   6.261636e+01 2.890989e+01 -6.336235e+01
      vertex   6.261636e+01 2.890989e+01 -5.649366e+01
      vertex   5.514137e+01 4.185698e+01 -6.336235e+01
    endloop
  endfacet
  facet normal -8.660259e-01 -4.999992e-01 0.000000e+00
    outer loop
      vertex   5.514137e+01 4.185698e+01 -6.336235e+01
      vertex   6.261636e+01 2.890989e+01 -5.649366e+01
      vertex   5.514137e+01 4.185698e+01 -5.649366e+01
    endloop
  endfacet
  facet normal -8.137981e-01 -4.698455e-01 -3.420201e-01
    outer loop
      vertex   6.705933e+01 3.147504e+01 -7.745774e+01
      vertex   6.261636e+01 2.890989e+01 -6.336235e+01
      vertex   5.958434e+01 4.442212e+01 -7.745774e+01
    endloop
  endfacet
  facet normal -8.137981e-01 -4.698455e-01 -3.420201e-01
    outer loop
      vertex   5.958434e+01 4.442212e+01 -7.745774e+01
      vertex   6.261636e+01 2.890989e+01 -6.336235e+01
      vertex   5.514137e+01 4.185698e+01 -6.336235e+01
    endloop
  endfacet
  facet normal 8.137981e-01 4.698455e-01 3.420201e-01
    outer loop
      vertex   2.126817e+01 2.230032e+01 6.196308e+01
      vertex   2.874315e+01 9.353231e+00 6.196308e+01
      vertex   6.480932e+01 4.743876e+01 -7.617173e+01
    endloop
  endfacet
  facet normal 8.137981e-01 4.698455e-01 3.420201e-01
    outer loop
      vertex   6.480932e+01 4.743876e+01 -7.617173e+01
      vertex   2.874315e+01 9.353231e+00 6.196308e+01
      vertex   7.228430e+01 3.449167e+01 -7.617173e+01
    endloop
  endfacet
  facet normal -4.999992e-01 8.660259e-01 1.515717e-15
    outer loop
      vertex   1.643107e+01 1.950763e+01 6.631523e+01
      vertex   1.949098e+01 2.127426e+01 6.760124e+01
      vertex   1.820826e+01 2.053368e+01 6.067708e+01
    endloop
  endfacet
  facet normal -4.999992e-01 8.660259e-01 8.858088e-16
    outer loop
      vertex   1.820826e+01 2.053368e+01 6.067708e+01
      vertex   1.949098e+01 2.127426e+01 6.760124e+01
      vertex   2.126817e+01 2.230032e+01 6.196308e+01
    endloop
  endfacet
  facet normal -4.999992e-01 8.660259e-01 9.093197e-16
    outer loop
      vertex   1.820826e+01 2.053368e+01 6.067708e+01
      vertex   2.126817e+01 2.230032e+01 6.196308e+01
      vertex   5.514137e+01 4.185698e+01 -5.649366e+01
    endloop
  endfacet
  facet normal -4.999992e-01 8.660259e-01 -1.357659e-15
    outer loop
      vertex   5.514137e+01 4.185698e+01 -5.649366e+01
      vertex   2.126817e+01 2.230032e+01 6.196308e+01
      vertex   6.480932e+01 4.743876e+01 -7.745774e+01
    endloop
  endfacet
  facet normal -4.999992e-01 8.660259e-01 5.055962e-16
    outer loop
      vertex   5.514137e+01 4.185698e+01 -5.649366e+01
      vertex   6.480932e+01 4.743876e+01 -7.745774e+01
      vertex   5.958434e+01 4.442212e+01 -7.745774e+01
    endloop
  endfacet
  facet normal -4.999992e-01 8.660259e-01 3.164976e-14
    outer loop
      vertex   2.126817e+01 2.230032e+01 6.196308e+01
      vertex   6.480932e+01 4.743876e+01 -7.617173e+01
      vertex   6.480932e+01 4.743876e+01 -7.745774e+01
    endloop
  endfacet
  facet normal -4.999992e-01 8.660259e-01 0.000000e+00
    outer loop
      vertex   5.958434e+01 4.442212e+01 -7.745774e+01
      vertex   5.514137e+01 4.185698e+01 -6.336235e+01
      vertex   5.514137e+01 4.185698e+01 -5.649366e+01
    endloop
  endfacet
endsolid
